<?xml version="1.0" standalone="no"?>
<!DOCTYPE svg PUBLIC "-//W3C//DTD SVG 20010904//EN"
 "http://www.w3.org/TR/2001/REC-SVG-20010904/DTD/svg10.dtd">
<svg version="1.0" xmlns="http://www.w3.org/2000/svg"
 width="1024.000000pt" height="1024.000000pt" viewBox="0 0 1024.000000 1024.000000"
 preserveAspectRatio="xMidYMid meet">

<g transform="translate(0.000000,1024.000000) scale(0.100000,-0.100000)"
fill="#000000" stroke="none">
<path d="M6225 7819 c-548 -100 -733 -146 -823 -205 -25 -16 -25 -17 -6 -31
10 -8 64 -37 119 -65 199 -100 295 -158 413 -251 l62 -49 26 59 c57 125 147
310 171 348 28 45 113 197 113 202 0 4 -16 2 -75 -8z"/>
<path d="M4675 7674 c-55 -14 -155 -42 -221 -64 -67 -22 -184 -50 -261 -63
-101 -18 -161 -34 -223 -62 -78 -34 -166 -69 -405 -162 -118 -46 -459 -158
-529 -174 l-56 -12 2 -301 2 -301 39 -44 c22 -23 58 -82 81 -130 l41 -86 130
136 c72 75 132 137 135 138 3 0 14 -12 25 -28 11 -16 49 -68 85 -115 l65 -87
93 98 c51 54 96 107 101 117 7 17 12 13 47 -31 143 -182 147 -186 158 -165 6
11 50 61 98 111 l88 90 48 -52 c27 -29 63 -68 79 -87 l31 -34 39 35 c51 47
135 93 202 113 83 24 270 20 399 -9 18 -5 22 -12 22 -46 0 -40 0 -40 -72 -73
-40 -19 -127 -59 -193 -89 -131 -60 -289 -117 -326 -117 -13 0 -38 9 -56 20
l-32 19 -35 -62 c-19 -34 -47 -88 -61 -119 l-26 -57 -42 27 c-23 15 -73 49
-111 76 -81 57 -73 60 -141 -72 -22 -42 -50 -94 -64 -115 l-24 -37 -31 25
c-41 33 -191 135 -198 135 -3 0 -34 -63 -68 -139 -62 -138 -63 -139 -85 -125
-13 8 -82 44 -156 79 -130 63 -133 64 -150 46 -10 -11 -28 -26 -40 -34 l-21
-15 21 -65 c12 -36 49 -105 82 -154 33 -48 107 -158 164 -244 l104 -156 123
49 c68 27 159 60 203 73 198 58 706 238 890 315 168 70 336 136 422 164 45 15
86 33 91 39 5 7 17 41 26 77 10 36 33 92 52 126 50 91 58 163 50 459 -3 138
-9 286 -12 330 l-6 80 67 24 c84 30 87 27 120 -103 54 -213 60 -563 12 -746
-53 -203 -154 -363 -282 -444 -84 -54 -434 -196 -745 -302 -102 -34 -185 -67
-185 -73 0 -5 27 -29 60 -52 95 -68 182 -147 215 -197 69 -105 113 -349 92
-519 -9 -78 -13 -87 -104 -240 -191 -318 -248 -412 -377 -620 -181 -293 -401
-698 -401 -738 0 -13 26 -15 184 -15 l184 0 13 38 c20 62 268 523 312 581 23
30 76 113 118 185 43 72 113 187 156 256 44 69 106 168 138 220 73 120 104
167 119 179 8 7 12 -21 14 -103 3 -111 3 -113 -37 -213 -23 -56 -41 -107 -41
-115 0 -27 -73 -164 -131 -248 -77 -109 -144 -222 -230 -387 -70 -134 -174
-371 -166 -379 2 -2 96 0 208 6 330 16 349 16 349 4 0 -7 7 -14 15 -17 8 -4
291 -3 629 0 l614 6 16 101 c69 445 34 1185 -79 1661 -32 138 -148 526 -187
630 -17 44 -48 125 -70 179 -21 54 -36 101 -33 104 5 5 35 -60 35 -76 0 -23
54 -60 98 -68 73 -13 103 -12 97 3 -31 76 0 33 59 -83 67 -128 138 -318 180
-474 19 -74 45 -169 56 -210 37 -133 79 -435 92 -653 19 -331 -5 -653 -70
-972 l-29 -140 41 -2 c23 -2 251 -4 509 -5 l467 -3 0 285 c-1 776 -39 1151
-166 1650 -230 897 -656 1618 -1250 2114 -250 208 -628 431 -901 531 -135 49
-189 84 -213 138 -11 23 -20 50 -20 60 0 22 -20 21 -145 -9z m-58 -406 c-78
-185 -106 -237 -160 -295 -50 -54 -62 -54 -326 7 -74 17 -137 33 -140 36 -16
16 50 45 396 174 99 37 189 73 200 79 24 14 36 14 30 -1z m-1037 -271 c0 -2
-7 -25 -16 -50 -18 -55 -17 -54 -169 -111 l-115 -44 0 73 0 72 143 31 c156 33
157 33 157 29z m3024 -1575 c14 -16 29 -46 33 -66 5 -31 2 -41 -22 -67 -33
-33 -78 -38 -125 -14 -33 17 -39 50 -19 102 28 74 86 94 133 45z m91 -393 c35
-67 1 -149 -61 -149 -39 0 -74 36 -74 75 0 60 63 123 108 107 7 -2 19 -17 27
-33z"/>
<path d="M6750 7323 c-228 -6 -580 -41 -619 -63 -25 -13 -71 -68 -71 -84 0 -7
20 -27 45 -45 24 -17 119 -104 210 -193 129 -125 168 -158 178 -149 8 6 26 34
41 62 26 46 141 221 256 388 25 35 50 66 57 68 14 5 19 25 6 21 -5 -1 -51 -3
-103 -5z"/>
<path d="M6568 6750 c-47 -14 -51 -20 -32 -48 9 -14 60 -81 113 -147 53 -67
128 -167 166 -223 39 -56 75 -102 82 -102 7 0 28 24 47 53 41 61 93 132 156
212 25 32 57 75 71 97 14 21 53 65 87 97 l62 58 -98 6 c-135 9 -621 7 -654 -3z"/>
<path d="M10169 6477 c-37 -28 -106 -86 -155 -127 -49 -41 -181 -153 -294
-248 -113 -96 -274 -233 -359 -305 -85 -73 -209 -177 -276 -232 -66 -55 -199
-167 -294 -250 -96 -82 -199 -170 -230 -195 -47 -37 -240 -204 -520 -448 l-64
-56 7 -170 c4 -94 3 -184 -2 -201 -8 -28 -11 -30 -56 -27 -63 4 -147 -21 -226
-68 -36 -22 -80 -44 -97 -51 -36 -12 -34 -1 -17 -146 3 -27 9 -295 15 -598 5
-302 12 -575 15 -606 l6 -56 -578 -7 c-602 -7 -1671 -1 -1730 10 -32 6 -40 1
-141 -93 -60 -55 -147 -133 -194 -174 -48 -41 -165 -144 -260 -229 -96 -86
-190 -169 -210 -185 -80 -67 -320 -276 -429 -375 -140 -128 -368 -332 -470
-420 -41 -36 -154 -135 -251 -220 -96 -85 -224 -198 -284 -250 -277 -241 -535
-473 -785 -707 l-45 -43 3998 0 3997 0 0 3265 c0 1796 -1 3265 -2 3265 -2 0
-33 -24 -69 -53z"/>
<path d="M6948 6108 c48 -71 159 -277 202 -377 58 -134 59 -135 76 -120 8 6
21 26 30 44 8 18 47 71 85 116 38 46 91 111 117 144 26 33 80 93 120 133 40
41 70 77 67 81 -9 8 -291 19 -533 20 l-193 1 29 -42z"/>
<path d="M7240 5489 c0 -7 27 -80 59 -163 54 -138 101 -279 116 -349 5 -23 8
-26 24 -17 11 5 30 27 42 47 37 61 286 334 343 376 61 46 65 54 34 66 -24 9
-199 26 -368 36 -52 3 -130 8 -172 11 -60 5 -78 3 -78 -7z"/>
<path d="M7435 4825 c29 -100 87 -351 101 -437 10 -60 21 -108 24 -108 10 0
64 61 135 155 33 43 74 95 91 114 43 50 99 138 129 206 30 68 31 85 8 86 -10
0 -125 1 -256 2 -234 2 -238 2 -232 -18z"/>
<path d="M3930 4714 c-35 -32 -40 -42 -40 -81 0 -38 5 -50 34 -79 37 -37 67
-42 119 -20 83 35 97 131 26 190 -45 38 -89 35 -139 -10z"/>
</g>
</svg>
